PathFileType	4	(X/Y/Z)	E:\Qualisys_Data\Carbon_Farble_Plate\Data\Amateur_Runner\S14\T3\S14T3V22_c3d.trc
DataRate	CameraRate	NumFrames	NumMarkers	Units	OrigDataRate	OrigDataStartFrame	OrigNumFrames
200.000000	200.000000	4	39	mm	200.000000	226	302
Frame#	Time	LSHO			RSHO			LICST			RICST			LASIS			LHEEL			RASIS			LTROC			RTROC			SACR			LTH1			LSK4			LTH2			LTH3			RHM5			LSK2			LTH4			RTH1			LTOE			RTH2			RTH3			RTH4			LLEP			RLEP			LSK1			LSK3			RSK1			LHM5			RSK2			LFT1			RSK3			RSK4			LLME			RLME			RTOE			RHEEL			RFT1			RFT2			LFT2			
		X1	Y1	Z1	X2	Y2	Z2	X3	Y3	Z3	X4	Y4	Z4	X5	Y5	Z5	X6	Y6	Z6	X7	Y7	Z7	X8	Y8	Z8	X9	Y9	Z9	X10	Y10	Z10	X11	Y11	Z11	X12	Y12	Z12	X13	Y13	Z13	X14	Y14	Z14	X15	Y15	Z15	X16	Y16	Z16	X17	Y17	Z17	X18	Y18	Z18	X19	Y19	Z19	X20	Y20	Z20	X21	Y21	Z21	X22	Y22	Z22	X23	Y23	Z23	X24	Y24	Z24	X25	Y25	Z25	X26	Y26	Z26	X27	Y27	Z27	X28	Y28	Z28	X29	Y29	Z29	X30	Y30	Z30	X31	Y31	Z31	X32	Y32	Z32	X33	Y33	Z33	X34	Y34	Z34	X35	Y35	Z35	X36	Y36	Z36	X37	Y37	Z37	X38	Y38	Z38	X39	Y39	Z39	

227	1.13	1498.625732421875	1448.015625	-604.5054321289062	1592.0234375	1447.774047851562	-324.5438842773438	1552.80419921875	988.965576171875	-568.9893188476562	1583.909545898438	1007.269775390625	-296.7214965820312	1597.089965820312	939.48095703125	-541.4507446289062	1759.351196289062	75.43087005615234	-468.4436340332031	1605.850708007812	961.98486328125	-311.5993041992188	1479.078369140625	865.737548828125	-589.289306640625	1443.331665039062	903.2747192382812	-253.0806579589844	1427.211669921875	991.9200439453124	-436.6040649414062	1616.63671875	657.228759765625	-600.3766479492188	1686.203491210938	289.7955932617188	-542.1181640625	1556.220092773438	628.9681396484375	-557.978759765625	1674.1689453125	578.174560546875	-571.732666015625	936.1686401367188	278.772216796875	-240.3161773681641	1656.814453125	383.9895935058594	-555.7409057617188	1606.514770507812	546.1215209960938	-542.7498779296875	1489.802001953125	662.3230590820312	-244.0982360839844	1992.035400390625	189.53955078125	-526.9966430664062	1418.583251953125	693.92724609375	-237.6940612792969	1454.4267578125	568.84716796875	-257.7525634765625	1376.947631835938	602.0676879882812	-250.3052978515625	1668.525146484375	491.2005615234375	-559.2371826171875	1371.56689453125	529.3657836914062	-243.8390960693359	1734.495971679688	408.229736328125	-562.8284912109375	1763.853393554688	311.2003784179688	-552.9224243164062	1263.997314453125	459.672607421875	-245.0324249267578	1933.657958984375	134.5393524169922	-574.9793090820312	1230.061279296875	536.7955932617188	-258.306884765625	1787.247192382812	59.23606109619141	-443.3924560546875	1167.419677734375	422.4730224609375	-260.5916442871094	1143.153686523438	497.0823974609375	-273.3565673828125	1792.387329101562	126.8861541748047	-531.994384765625	995.819091796875	407.0669250488281	-291.364013671875	960.3106079101562	195.0591125488281	-283.2995910644531	971.984130859375	440.3401794433594	-364.1688842773438	950.6268920898438	421.4166259765625	-389.9885559082031	949.0413818359376	448.8604736328125	-343.8647155761719	1775.754760742188	48.64418792724609	-495.5140380859375
228	1.135	1518.546264648438	1443.893920898438	-606.3477172851562	1610.69140625	1444.242431640625	-325.8345947265625	1571.66064453125	985.7344970703124	-569.7875366210938	1603.494995117188	1003.949768066406	-297.5529174804688	1616.2734375	936.4779052734376	-542.6533813476562	1774.722900390625	71.11433410644531	-467.4007873535156	1625.943725585938	958.8754272460938	-312.7073974609375	1498.457397460938	862.2951049804688	-590.1055908203125	1464.03466796875	899.1947631835938	-253.2168884277344	1446.52978515625	988.2047119140624	-437.5882263183594	1635.884155273438	653.8159790039062	-600.80126953125	1703.180541992188	286.3522338867188	-541.4419555664062	1574.898071289062	625.8726806640625	-558.524169921875	1693.277709960938	574.983154296875	-571.948974609375	956.6328125	283.9476318359375	-241.6221923828125	1674.145263671875	380.5132141113281	-555.5712280273438	1625.907836914062	543.0781860351562	-542.7327880859375	1512.6826171875	658.390625	-244.7068786621094	2007.694213867188	183.5614166259766	-528.3718872070312	1441.054809570312	689.4454345703125	-238.1425323486328	1477.567504882812	564.3518676757812	-258.1270751953125	1399.887451171875	597.0259399414062	-250.6412200927734	1687.394165039062	487.7948608398438	-559.8296508789062	1395.381225585938	523.9651489257812	-243.5239410400391	1752.475708007812	404.0	-563.1783447265625	1780.863891601562	306.8455810546875	-553.3629760742188	1286.974853515625	455.9833679199219	-245.4004821777344	1948.411254882812	128.5268859863281	-575.8195190429688	1254.699462890625	534.8533935546875	-258.07470703125	1802.522705078125	55.10213851928711	-442.5357360839844	1189.858642578125	421.0462036132812	-262.5201416015625	1167.217651367188	496.5791015625	-273.9194641113281	1807.265869140625	122.3507919311523	-531.8170776367188	1017.916564941406	410.7379760742188	-293.2545471191406	979.107666015625	199.3296356201172	-285.9792175292969	994.8612060546876	444.8120422363281	-365.4925231933594	972.8370971679688	426.13720703125	-392.2805786132812	972.0005493164062	453.0047912597656	-345.4380187988281	1790.7431640625	43.68715667724609	-494.448486328125
229	1.14	1538.6630859375	1439.274169921875	-608.3526000976562	1629.464477539062	1440.106567382812	-327.0534057617188	1590.585083007812	982.433837890625	-570.6651611328125	1623.42041015625	1000.722534179688	-298.4005432128906	1635.401489257812	933.3365478515624	-543.7433471679688	1788.77001953125	66.79303741455078	-467.0736999511719	1645.696411132812	955.5188598632812	-313.4475402832031	1517.28125	858.3849487304688	-590.7581176757812	1484.682006835938	894.7720947265625	-253.0943450927734	1465.975830078125	983.909912109375	-437.9609375	1655.251098632812	650.6165771484375	-600.981689453125	1719.6640625	282.3216857910156	-540.9739990234375	1594.623291015625	622.8605346679688	-558.7421875	1712.560180664062	571.760498046875	-572.2399291992188	977.2343139648438	287.3956909179688	-244.7310028076172	1691.757690429688	377.299560546875	-555.2020263671875	1644.872192382812	539.6630859375	-543.2645874023438	1535.355346679688	654.18212890625	-245.1322326660156	2022.468994140625	176.7950592041016	-529.2029418945312	1463.90380859375	683.796142578125	-238.8063201904297	1501.67626953125	559.5431518554688	-258.4580688476562	1423.545166015625	591.2228393554688	-251.0123596191406	1706.39892578125	484.1787109375	-560.3439331054688	1419.559692382812	518.17626953125	-244.3136444091797	1770.41650390625	399.2618103027344	-563.89111328125	1797.119140625	301.5888061523438	-553.7337646484375	1310.494262695312	452.3271179199219	-246.1567840576172	1962.46826171875	122.0733032226562	-576.1560668945312	1279.868041992188	531.7791748046875	-257.4421691894531	1816.605346679688	50.35707092285156	-441.8960266113281	1212.519775390625	419.6694641113281	-262.8461303710938	1192.056640625	495.57568359375	-273.8973999023438	1821.528198242188	116.9248275756836	-531.3202514648438	1040.893188476562	413.7207641601562	-294.6776428222656	998.4074096679688	203.13671875	-288.3916931152344	1018.049987792969	447.9745788574219	-367.3282165527344	996.0745849609376	429.9246520996094	-393.3589172363281	995.3517456054688	457.4809265136719	-347.2531433105469	1804.42236328125	39.50651168823242	-494.1219482421875
230	1.145	1558.653564453125	1434.608154296875	-610.134521484375	1647.945678710938	1436.276489257812	-328.4397888183594	1609.217651367188	978.9238891601562	-571.7824096679688	1643.23876953125	996.4959106445312	-298.9559936523438	1654.427978515625	929.8140869140624	-544.8145141601562	1800.878295898438	62.18824768066406	-466.6658020019531	1665.518920898438	952.0656127929688	-314.5001525878906	1535.805419921875	854.5130615234375	-591.2117309570312	1505.29150390625	889.5717163085938	-253.5824584960938	1485.119262695312	979.5864868164062	-438.4303588867188	1674.641479492188	647.6024169921875	-600.3158569335938	1735.358520507812	278.4766845703125	-540.180908203125	1614.682373046875	619.9443969726562	-559.2392578125	1732.442016601562	568.5611572265625	-572.4264526367188	998.4105834960938	290.8860778808594	-246.8575134277344	1709.338989257812	373.6489868164062	-555.0711059570312	1664.760986328125	536.1503295898438	-543.2218017578125	1558.442138671875	649.20947265625	-246.4962921142578	2036.302612304688	168.5941619873047	-529.2132568359375	1486.237182617188	678.32958984375	-239.5885467529297	1525.57666015625	554.3584594726562	-258.9308471679688	1447.284545898438	585.2664184570312	-251.3539276123047	1725.017578125	481.0887756347656	-561.044189453125	1444.523315429688	512.8809204101562	-243.9250640869141	1788.121337890625	394.6444702148438	-564.42333984375	1813.3427734375	296.6442565917969	-553.946533203125	1334.41552734375	448.1902160644531	-246.628662109375	1975.49755859375	114.5111236572266	-575.884521484375	1305.457397460938	528.61572265625	-257.299072265625	1828.561401367188	45.39394760131836	-441.55419921875	1235.941772460938	418.0528259277344	-264.7943725585938	1216.656005859375	494.4462585449219	-274.2661743164062	1834.793701171875	111.923469543457	-530.7840576171875	1064.811401367188	415.5037536621094	-296.9338073730469	1018.847106933594	206.55126953125	-290.9132385253906	1040.897094726562	450.7485656738281	-370.047607421875	1019.724487304688	433.8523864746094	-395.1996459960938	1019.470153808594	460.9041137695312	-348.5757751464844	1816.374755859375	34.73117828369141	-493.239013671875
